<?xml version="1.0" encoding="utf-8"?>
<!-- Generator: Adobe Illustrator 17.1.0, SVG Export Plug-In . SVG Version: 6.00 Build 0)  -->
<!DOCTYPE svg PUBLIC "-//W3C//DTD SVG 1.1//EN" "http://www.w3.org/Graphics/SVG/1.1/DTD/svg11.dtd">
<svg version="1.1" id="Layer_1" xmlns="http://www.w3.org/2000/svg" xmlns:xlink="http://www.w3.org/1999/xlink" x="0px" y="0px"
	 viewBox="0 0 285 380" enable-background="new 0 0 285 380" xml:space="preserve">
<rect x="76" y="300" fill="#C1272D" stroke="#FFFFFF" stroke-width="2" stroke-miterlimit="10" width="19" height="20"/>
<rect x="76" y="280" fill="#C1272D" stroke="#FFFFFF" stroke-width="2" stroke-miterlimit="10" width="19" height="20"/>
<rect x="152" y="240" fill="#F15A24" stroke="#FFFFFF" stroke-width="2" stroke-miterlimit="10" width="19" height="20"/>
<rect x="133" y="320" fill="#F15A24" stroke="#FFFFFF" stroke-width="2" stroke-miterlimit="10" width="19" height="20"/>
<rect x="133" y="320" fill="#F15A24" stroke="#FFFFFF" stroke-width="2" stroke-miterlimit="10" width="19" height="20"/>
<rect x="76" y="340" fill="#C1272D" stroke="#FFFFFF" stroke-width="2" stroke-miterlimit="10" width="19" height="20"/>
<rect x="152" y="260" fill="#F15A24" stroke="#FFFFFF" stroke-width="2" stroke-miterlimit="10" width="19" height="20"/>
<rect x="114" y="260" fill="#F15A24" stroke="#FFFFFF" stroke-width="2" stroke-miterlimit="10" width="19" height="20"/>
<rect x="76" y="360" fill="#C1272D" stroke="#FFFFFF" stroke-width="2" stroke-miterlimit="10" width="19" height="20"/>
<rect x="95" y="300" fill="#C1272D" stroke="#FFFFFF" stroke-width="2" stroke-miterlimit="10" width="19" height="20"/>
<rect x="95" y="320" fill="#C1272D" stroke="#FFFFFF" stroke-width="2" stroke-miterlimit="10" width="19" height="20"/>
<rect x="95" y="280" fill="#C1272D" stroke="#FFFFFF" stroke-width="2" stroke-miterlimit="10" width="19" height="20"/>
<rect x="95" y="360" fill="#C1272D" stroke="#FFFFFF" stroke-width="2" stroke-miterlimit="10" width="19" height="20"/>
<rect x="114" y="300" fill="#C1272D" stroke="#FFFFFF" stroke-width="2" stroke-miterlimit="10" width="19" height="20"/>
<rect x="114" y="320" fill="#C1272D" stroke="#FFFFFF" stroke-width="2" stroke-miterlimit="10" width="19" height="20"/>
<rect x="114" y="280" fill="#C1272D" stroke="#FFFFFF" stroke-width="2" stroke-miterlimit="10" width="19" height="20"/>
<rect x="114" y="340" fill="#C1272D" stroke="#FFFFFF" stroke-width="2" stroke-miterlimit="10" width="19" height="20"/>
<rect x="114" y="360" fill="#C1272D" stroke="#FFFFFF" stroke-width="2" stroke-miterlimit="10" width="19" height="20"/>
<rect x="76" y="199" fill="#C1272D" stroke="#FFFFFF" stroke-width="2" stroke-miterlimit="10" width="19" height="20"/>
<rect x="76" y="159" fill="#C1272D" stroke="#FFFFFF" stroke-width="2" stroke-miterlimit="10" width="19" height="20"/>
<rect x="38" y="200" fill="#C1272D" stroke="#FFFFFF" stroke-width="2" stroke-miterlimit="10" width="19" height="20"/>
<rect x="76" y="239" fill="#C1272D" stroke="#FFFFFF" stroke-width="2" stroke-miterlimit="10" width="19" height="20"/>
<rect x="76" y="259" fill="#C1272D" stroke="#FFFFFF" stroke-width="2" stroke-miterlimit="10" width="19" height="20"/>
<rect x="95" y="179" fill="#C1272D" stroke="#FFFFFF" stroke-width="2" stroke-miterlimit="10" width="19" height="20"/>
<rect x="95" y="239" fill="#C1272D" stroke="#FFFFFF" stroke-width="2" stroke-miterlimit="10" width="19" height="20"/>
<rect x="114" y="199" fill="#C1272D" stroke="#FFFFFF" stroke-width="2" stroke-miterlimit="10" width="19" height="20"/>
<rect x="114" y="219" fill="#C1272D" stroke="#FFFFFF" stroke-width="2" stroke-miterlimit="10" width="19" height="20"/>
<rect x="114" y="179" fill="#C1272D" stroke="#FFFFFF" stroke-width="2" stroke-miterlimit="10" width="19" height="20"/>
<rect x="114" y="239" fill="#C1272D" stroke="#FFFFFF" stroke-width="2" stroke-miterlimit="10" width="19" height="20"/>
<rect x="114" y="259" fill="#C1272D" stroke="#FFFFFF" stroke-width="2" stroke-miterlimit="10" width="19" height="20"/>
<rect x="133" y="360" fill="#FF0000" stroke="#FFFFFF" stroke-width="2" stroke-miterlimit="10" width="19" height="20"/>
<rect x="152" y="280" fill="#F15A24" stroke="#FFFFFF" stroke-width="2" stroke-miterlimit="10" width="19" height="20"/>
<rect x="152" y="300" fill="#F15A24" stroke="#FFFFFF" stroke-width="2" stroke-miterlimit="10" width="19" height="20"/>
<rect x="114" y="320" fill="#F15A24" stroke="#FFFFFF" stroke-width="2" stroke-miterlimit="10" width="19" height="20"/>
<rect x="152" y="360" fill="#F15A24" stroke="#FFFFFF" stroke-width="2" stroke-miterlimit="10" width="19" height="20"/>
<rect x="133" y="340" fill="#FF0000" stroke="#FFFFFF" stroke-width="2" stroke-miterlimit="10" width="19" height="20"/>
<rect x="152" y="340" fill="#F15A24" stroke="#FFFFFF" stroke-width="2" stroke-miterlimit="10" width="19" height="20"/>
<rect x="95" y="360" fill="#F15A24" stroke="#FFFFFF" stroke-width="2" stroke-miterlimit="10" width="19" height="20"/>
<rect x="152" y="100" fill="#F15A24" stroke="#FFFFFF" stroke-width="2" stroke-miterlimit="10" width="19" height="20"/>
<rect x="152" y="180" fill="#F15A24" stroke="#FFFFFF" stroke-width="2" stroke-miterlimit="10" width="19" height="20"/>
<rect x="152" y="120" fill="#F15A24" stroke="#FFFFFF" stroke-width="2" stroke-miterlimit="10" width="19" height="20"/>
<rect x="152" y="140" fill="#F15A24" stroke="#FFFFFF" stroke-width="2" stroke-miterlimit="10" width="19" height="20"/>
<rect x="152" y="160" fill="#F15A24" stroke="#FFFFFF" stroke-width="2" stroke-miterlimit="10" width="19" height="20"/>
<rect x="114" y="159" fill="#F15A24" stroke="#FFFFFF" stroke-width="2" stroke-miterlimit="10" width="19" height="20"/>
<rect x="152" y="220" fill="#F15A24" stroke="#FFFFFF" stroke-width="2" stroke-miterlimit="10" width="19" height="20"/>
<rect x="152" y="200" fill="#F15A24" stroke="#FFFFFF" stroke-width="2" stroke-miterlimit="10" width="19" height="20"/>
<rect x="171" y="360" fill="#FBB03B" stroke="#FFFFFF" stroke-width="2" stroke-miterlimit="10" width="19" height="20"/>
<rect x="171" y="340" fill="#FBB03B" stroke="#FFFFFF" stroke-width="2" stroke-miterlimit="10" width="19" height="20"/>
<rect x="171" y="320" fill="#FBB03B" stroke="#FFFFFF" stroke-width="2" stroke-miterlimit="10" width="19" height="20"/>
<rect x="76" y="340" fill="#FF0000" stroke="#FFFFFF" stroke-width="2" stroke-miterlimit="10" width="19" height="20"/>
<rect x="171" y="260" fill="#FBB03B" stroke="#FFFFFF" stroke-width="2" stroke-miterlimit="10" width="19" height="20"/>
<rect x="171" y="220" fill="#FBB03B" stroke="#FFFFFF" stroke-width="2" stroke-miterlimit="10" width="19" height="20"/>
<rect x="171" y="280" fill="#FBB03B" stroke="#FFFFFF" stroke-width="2" stroke-miterlimit="10" width="19" height="20"/>
<rect x="152" y="280" fill="#FBB03B" stroke="#FFFFFF" stroke-width="2" stroke-miterlimit="10" width="19" height="20"/>
<rect x="171" y="240" fill="#FBB03B" stroke="#FFFFFF" stroke-width="2" stroke-miterlimit="10" width="19" height="20"/>
<rect x="133" y="320" fill="#FF0000" stroke="#FFFFFF" stroke-width="2" stroke-miterlimit="10" width="19" height="20"/>
<rect x="133" y="199" fill="#F15A24" stroke="#FFFFFF" stroke-width="2" stroke-miterlimit="10" width="19" height="20"/>
<rect x="133" y="199" fill="#F15A24" stroke="#FFFFFF" stroke-width="2" stroke-miterlimit="10" width="19" height="20"/>
<rect x="133" y="239" fill="#FF0000" stroke="#FFFFFF" stroke-width="2" stroke-miterlimit="10" width="19" height="20"/>
<rect x="133" y="219" fill="#FF0000" stroke="#FFFFFF" stroke-width="2" stroke-miterlimit="10" width="19" height="20"/>
<rect x="133" y="199" fill="#FF0000" stroke="#FFFFFF" stroke-width="2" stroke-miterlimit="10" width="19" height="20"/>
<rect x="76" y="239" fill="#FF0000" stroke="#FFFFFF" stroke-width="2" stroke-miterlimit="10" width="19" height="20"/>
<rect x="57" y="360" fill="#C1272D" stroke="#FFFFFF" stroke-width="2" stroke-miterlimit="10" width="19" height="20"/>
<rect x="57" y="340" fill="#C1272D" stroke="#FFFFFF" stroke-width="2" stroke-miterlimit="10" width="19" height="20"/>
<rect x="57" y="259" fill="#C1272D" stroke="#FFFFFF" stroke-width="2" stroke-miterlimit="10" width="19" height="20"/>
<rect x="57" y="279" fill="#C1272D" stroke="#FFFFFF" stroke-width="2" stroke-miterlimit="10" width="19" height="20"/>
<rect x="57" y="299" fill="#C1272D" stroke="#FFFFFF" stroke-width="2" stroke-miterlimit="10" width="19" height="20"/>
<rect x="57" y="319" fill="#C1272D" stroke="#FFFFFF" stroke-width="2" stroke-miterlimit="10" width="19" height="20"/>
<rect x="57" y="299" fill="#FF0000" stroke="#FFFFFF" stroke-width="2" stroke-miterlimit="10" width="19" height="20"/>
<rect x="38" y="300" fill="#C1272D" stroke="#FFFFFF" stroke-width="2" stroke-miterlimit="10" width="19" height="20"/>
<rect x="38" y="320" fill="#C1272D" stroke="#FFFFFF" stroke-width="2" stroke-miterlimit="10" width="19" height="20"/>
<rect x="0" y="280" fill="#C1272D" stroke="#FFFFFF" stroke-width="2" stroke-miterlimit="10" width="19" height="20"/>
<rect x="38" y="340" fill="#C1272D" stroke="#FFFFFF" stroke-width="2" stroke-miterlimit="10" width="19" height="20"/>
<rect x="38" y="360" fill="#C1272D" stroke="#FFFFFF" stroke-width="2" stroke-miterlimit="10" width="19" height="20"/>
<rect x="38" y="340" fill="#FF0000" stroke="#FFFFFF" stroke-width="2" stroke-miterlimit="10" width="19" height="20"/>
<rect x="0" y="340" fill="#FF0000" stroke="#FFFFFF" stroke-width="2" stroke-miterlimit="10" width="19" height="20"/>
<rect x="19" y="320" fill="#C1272D" stroke="#FFFFFF" stroke-width="2" stroke-miterlimit="10" width="19" height="20"/>
<rect x="19" y="340" fill="#C1272D" stroke="#FFFFFF" stroke-width="2" stroke-miterlimit="10" width="19" height="20"/>
<rect x="19" y="360" fill="#C1272D" stroke="#FFFFFF" stroke-width="2" stroke-miterlimit="10" width="19" height="20"/>
<rect x="19" y="360" fill="#FF0000" stroke="#FFFFFF" stroke-width="2" stroke-miterlimit="10" width="19" height="20"/>
<rect x="114" y="340" fill="#FF0000" stroke="#FFFFFF" stroke-width="2" stroke-miterlimit="10" width="19" height="20"/>
<rect x="133" y="280" fill="#FF0000" stroke="#FFFFFF" stroke-width="2" stroke-miterlimit="10" width="19" height="20"/>
<rect x="95" y="280" fill="#FF0000" stroke="#FFFFFF" stroke-width="2" stroke-miterlimit="10" width="19" height="20"/>
<rect x="133" y="259" fill="#FF0000" stroke="#FFFFFF" stroke-width="2" stroke-miterlimit="10" width="19" height="20"/>
<rect x="95" y="120" fill="#FF0000" stroke="#FFFFFF" stroke-width="2" stroke-miterlimit="10" width="19" height="20"/>
<rect x="171" y="300" fill="#FBB03B" stroke="#FFFFFF" stroke-width="2" stroke-miterlimit="10" width="19" height="20"/>
<rect x="171" y="200" fill="#FBB03B" stroke="#FFFFFF" stroke-width="2" stroke-miterlimit="10" width="19" height="20"/>
<rect x="114" y="179" fill="#FBB03B" stroke="#FFFFFF" stroke-width="2" stroke-miterlimit="10" width="19" height="20"/>
<rect x="228" y="180" fill="#FBB03B" stroke="#FFFFFF" stroke-width="2" stroke-miterlimit="10" width="19" height="20"/>
<rect x="228" y="180" fill="#FBB03B" stroke="#FFFFFF" stroke-width="2" stroke-miterlimit="10" width="19" height="20"/>
<rect x="228" y="180" fill="#FBB03B" stroke="#FFFFFF" stroke-width="2" stroke-miterlimit="10" width="19" height="20"/>
<rect x="152" y="200" fill="#FBB03B" stroke="#FFFFFF" stroke-width="2" stroke-miterlimit="10" width="19" height="20"/>
<rect x="171" y="160" fill="#FBB03B" stroke="#FFFFFF" stroke-width="2" stroke-miterlimit="10" width="19" height="20"/>
<rect x="190" y="180" fill="#FBB03B" stroke="#FFFFFF" stroke-width="2" stroke-miterlimit="10" width="19" height="20"/>
<rect x="171" y="100" fill="#FBB03B" stroke="#FFFFFF" stroke-width="2" stroke-miterlimit="10" width="19" height="20"/>
<rect x="152" y="40" fill="#FBB03B" stroke="#FFFFFF" stroke-width="2" stroke-miterlimit="10" width="19" height="20"/>
<rect x="171" y="80" fill="#FBB03B" stroke="#FFFFFF" stroke-width="2" stroke-miterlimit="10" width="19" height="20"/>
<rect x="171" y="140" fill="#FBB03B" stroke="#FFFFFF" stroke-width="2" stroke-miterlimit="10" width="19" height="20"/>
<rect x="228" y="340" fill="#FFFF00" stroke="#FFFFFF" stroke-width="2" stroke-miterlimit="10" width="19" height="20"/>
<rect x="228" y="320" fill="#FFFF00" stroke="#FFFFFF" stroke-width="2" stroke-miterlimit="10" width="19" height="20"/>
<rect x="228" y="300" fill="#FFFF00" stroke="#FFFFFF" stroke-width="2" stroke-miterlimit="10" width="19" height="20"/>
<rect x="152" y="360" fill="#FFFF00" stroke="#FFFFFF" stroke-width="2" stroke-miterlimit="10" width="19" height="20"/>
<rect x="228" y="200" fill="#FFFF00" stroke="#FFFFFF" stroke-width="2" stroke-miterlimit="10" width="19" height="20"/>
<rect x="228" y="260" fill="#FFFF00" stroke="#FFFFFF" stroke-width="2" stroke-miterlimit="10" width="19" height="20"/>
<rect x="228" y="280" fill="#FFFF00" stroke="#FFFFFF" stroke-width="2" stroke-miterlimit="10" width="19" height="20"/>
<rect x="228" y="240" fill="#FFFF00" stroke="#FFFFFF" stroke-width="2" stroke-miterlimit="10" width="19" height="20"/>
<rect x="228" y="220" fill="#FFFF00" stroke="#FFFFFF" stroke-width="2" stroke-miterlimit="10" width="19" height="20"/>
<rect x="171" y="240" fill="#FFFF00" stroke="#FFFFFF" stroke-width="2" stroke-miterlimit="10" width="19" height="20"/>
<rect x="228" y="180" fill="#FFFF00" stroke="#FFFFFF" stroke-width="2" stroke-miterlimit="10" width="19" height="20"/>
<rect x="228" y="160" fill="#FFFF00" stroke="#FFFFFF" stroke-width="2" stroke-miterlimit="10" width="19" height="20"/>
<rect x="228" y="140" fill="#FFFF00" stroke="#FFFFFF" stroke-width="2" stroke-miterlimit="10" width="19" height="20"/>
<rect x="228" y="80" fill="#FFFF00" stroke="#FFFFFF" stroke-width="2" stroke-miterlimit="10" width="19" height="20"/>
<rect x="228" y="0" fill="#FFFF00" stroke="#FFFFFF" stroke-width="2" stroke-miterlimit="10" width="19" height="20"/>
<rect x="228" y="60" fill="#FFFF00" stroke="#FFFFFF" stroke-width="2" stroke-miterlimit="10" width="19" height="20"/>
<rect x="171" y="100" fill="#FFFF00" stroke="#FFFFFF" stroke-width="2" stroke-miterlimit="10" width="19" height="20"/>
<rect x="133" y="80" fill="#FFFF00" stroke="#FFFFFF" stroke-width="2" stroke-miterlimit="10" width="19" height="20"/>
<rect x="228" y="120" fill="#FFFF00" stroke="#FFFFFF" stroke-width="2" stroke-miterlimit="10" width="19" height="20"/>
<rect x="209" y="200" fill="#FBB03B" stroke="#FFFFFF" stroke-width="2" stroke-miterlimit="10" width="19" height="20"/>
<rect x="209" y="200" fill="#FBB03B" stroke="#FFFFFF" stroke-width="2" stroke-miterlimit="10" width="19" height="20"/>
<rect x="209" y="200" fill="#FBB03B" stroke="#FFFFFF" stroke-width="2" stroke-miterlimit="10" width="19" height="20"/>
<rect x="209" y="360" fill="#FFFF00" stroke="#FFFFFF" stroke-width="2" stroke-miterlimit="10" width="19" height="20"/>
<rect x="209" y="340" fill="#FFFF00" stroke="#FFFFFF" stroke-width="2" stroke-miterlimit="10" width="19" height="20"/>
<rect x="209" y="320" fill="#FFFF00" stroke="#FFFFFF" stroke-width="2" stroke-miterlimit="10" width="19" height="20"/>
<rect x="209" y="220" fill="#FFFF00" stroke="#FFFFFF" stroke-width="2" stroke-miterlimit="10" width="19" height="20"/>
<rect x="209" y="280" fill="#FFFF00" stroke="#FFFFFF" stroke-width="2" stroke-miterlimit="10" width="19" height="20"/>
<rect x="209" y="240" fill="#FFFF00" stroke="#FFFFFF" stroke-width="2" stroke-miterlimit="10" width="19" height="20"/>
<rect x="209" y="300" fill="#FFFF00" stroke="#FFFFFF" stroke-width="2" stroke-miterlimit="10" width="19" height="20"/>
<rect x="209" y="200" fill="#FFFF00" stroke="#FFFFFF" stroke-width="2" stroke-miterlimit="10" width="19" height="20"/>
<rect x="209" y="180" fill="#FFFF00" stroke="#FFFFFF" stroke-width="2" stroke-miterlimit="10" width="19" height="20"/>
<rect x="209" y="160" fill="#FFFF00" stroke="#FFFFFF" stroke-width="2" stroke-miterlimit="10" width="19" height="20"/>
<rect x="209" y="100" fill="#FFFF00" stroke="#FFFFFF" stroke-width="2" stroke-miterlimit="10" width="19" height="20"/>
<rect x="209" y="120" fill="#FFFF00" stroke="#FFFFFF" stroke-width="2" stroke-miterlimit="10" width="19" height="20"/>
<rect x="209" y="80" fill="#FFFF00" stroke="#FFFFFF" stroke-width="2" stroke-miterlimit="10" width="19" height="20"/>
<rect x="209" y="40" fill="#FFFF00" stroke="#FFFFFF" stroke-width="2" stroke-miterlimit="10" width="19" height="20"/>
<rect x="209" y="140" fill="#FFFF00" stroke="#FFFFFF" stroke-width="2" stroke-miterlimit="10" width="19" height="20"/>
<rect x="266" y="320" fill="#FBB03B" stroke="#FFFFFF" stroke-width="2" stroke-miterlimit="10" width="19" height="20"/>
<rect x="266" y="320" fill="#FBB03B" stroke="#FFFFFF" stroke-width="2" stroke-miterlimit="10" width="19" height="20"/>
<rect x="266" y="320" fill="#FBB03B" stroke="#FFFFFF" stroke-width="2" stroke-miterlimit="10" width="19" height="20"/>
<rect x="266" y="340" fill="#FFFF00" stroke="#FFFFFF" stroke-width="2" stroke-miterlimit="10" width="19" height="20"/>
<rect x="266" y="360" fill="#FFFF00" stroke="#FFFFFF" stroke-width="2" stroke-miterlimit="10" width="19" height="20"/>
<rect x="266" y="320" fill="#FFFF00" stroke="#FFFFFF" stroke-width="2" stroke-miterlimit="10" width="19" height="20"/>
<rect x="266" y="300" fill="#FFFF00" stroke="#FFFFFF" stroke-width="2" stroke-miterlimit="10" width="19" height="20"/>
<rect x="266" y="280" fill="#FFFF00" stroke="#FFFFFF" stroke-width="2" stroke-miterlimit="10" width="19" height="20"/>
<rect x="266" y="220" fill="#FFFF00" stroke="#FFFFFF" stroke-width="2" stroke-miterlimit="10" width="19" height="20"/>
<rect x="266" y="200" fill="#FFFF00" stroke="#FFFFFF" stroke-width="2" stroke-miterlimit="10" width="19" height="20"/>
<rect x="266" y="260" fill="#FFFF00" stroke="#FFFFFF" stroke-width="2" stroke-miterlimit="10" width="19" height="20"/>
<rect x="247" y="200" fill="#FBB03B" stroke="#FFFFFF" stroke-width="2" stroke-miterlimit="10" width="19" height="20"/>
<rect x="247" y="200" fill="#FBB03B" stroke="#FFFFFF" stroke-width="2" stroke-miterlimit="10" width="19" height="20"/>
<rect x="247" y="200" fill="#FBB03B" stroke="#FFFFFF" stroke-width="2" stroke-miterlimit="10" width="19" height="20"/>
<rect x="247" y="360" fill="#FFFF00" stroke="#FFFFFF" stroke-width="2" stroke-miterlimit="10" width="19" height="20"/>
<rect x="247" y="340" fill="#FFFF00" stroke="#FFFFFF" stroke-width="2" stroke-miterlimit="10" width="19" height="20"/>
<rect x="247" y="220" fill="#FFFF00" stroke="#FFFFFF" stroke-width="2" stroke-miterlimit="10" width="19" height="20"/>
<rect x="247" y="280" fill="#FFFF00" stroke="#FFFFFF" stroke-width="2" stroke-miterlimit="10" width="19" height="20"/>
<rect x="247" y="240" fill="#FFFF00" stroke="#FFFFFF" stroke-width="2" stroke-miterlimit="10" width="19" height="20"/>
<rect x="247" y="300" fill="#FFFF00" stroke="#FFFFFF" stroke-width="2" stroke-miterlimit="10" width="19" height="20"/>
<rect x="247" y="200" fill="#FFFF00" stroke="#FFFFFF" stroke-width="2" stroke-miterlimit="10" width="19" height="20"/>
<rect x="247" y="180" fill="#FFFF00" stroke="#FFFFFF" stroke-width="2" stroke-miterlimit="10" width="19" height="20"/>
<rect x="247" y="160" fill="#FFFF00" stroke="#FFFFFF" stroke-width="2" stroke-miterlimit="10" width="19" height="20"/>
<rect x="247" y="100" fill="#FFFF00" stroke="#FFFFFF" stroke-width="2" stroke-miterlimit="10" width="19" height="20"/>
<rect x="247" y="80" fill="#FFFF00" stroke="#FFFFFF" stroke-width="2" stroke-miterlimit="10" width="19" height="20"/>
<rect x="247" y="40" fill="#FFFF00" stroke="#FFFFFF" stroke-width="2" stroke-miterlimit="10" width="19" height="20"/>
<rect x="247" y="140" fill="#FFFF00" stroke="#FFFFFF" stroke-width="2" stroke-miterlimit="10" width="19" height="20"/>
<rect x="190" y="360" fill="#FBB03B" stroke="#FFFFFF" stroke-width="2" stroke-miterlimit="10" width="19" height="20"/>
<rect x="190" y="320" fill="#FBB03B" stroke="#FFFFFF" stroke-width="2" stroke-miterlimit="10" width="19" height="20"/>
<rect x="190" y="260" fill="#FBB03B" stroke="#FFFFFF" stroke-width="2" stroke-miterlimit="10" width="19" height="20"/>
<rect x="190" y="220" fill="#FBB03B" stroke="#FFFFFF" stroke-width="2" stroke-miterlimit="10" width="19" height="20"/>
<rect x="190" y="280" fill="#FBB03B" stroke="#FFFFFF" stroke-width="2" stroke-miterlimit="10" width="19" height="20"/>
<rect x="209" y="299" fill="#FBB03B" stroke="#FFFFFF" stroke-width="2" stroke-miterlimit="10" width="19" height="20"/>
<rect x="190" y="240" fill="#FBB03B" stroke="#FFFFFF" stroke-width="2" stroke-miterlimit="10" width="19" height="20"/>
<rect x="190" y="300" fill="#FBB03B" stroke="#FFFFFF" stroke-width="2" stroke-miterlimit="10" width="19" height="20"/>
<rect x="190" y="200" fill="#FBB03B" stroke="#FFFFFF" stroke-width="2" stroke-miterlimit="10" width="19" height="20"/>
<rect x="190" y="160" fill="#FBB03B" stroke="#FFFFFF" stroke-width="2" stroke-miterlimit="10" width="19" height="20"/>
<rect x="190" y="100" fill="#FBB03B" stroke="#FFFFFF" stroke-width="2" stroke-miterlimit="10" width="19" height="20"/>
<rect x="190" y="60" fill="#FBB03B" stroke="#FFFFFF" stroke-width="2" stroke-miterlimit="10" width="19" height="20"/>
<rect x="190" y="120" fill="#FBB03B" stroke="#FFFFFF" stroke-width="2" stroke-miterlimit="10" width="19" height="20"/>
<rect x="190" y="80" fill="#FBB03B" stroke="#FFFFFF" stroke-width="2" stroke-miterlimit="10" width="19" height="20"/>
<rect x="190" y="140" fill="#FBB03B" stroke="#FFFFFF" stroke-width="2" stroke-miterlimit="10" width="19" height="20"/>
<rect x="209" y="160" fill="#FBB03B" stroke="#FFFFFF" stroke-width="2" stroke-miterlimit="10" width="19" height="20"/>
<rect x="171" y="300" fill="#FFFF00" stroke="#FFFFFF" stroke-width="2" stroke-miterlimit="10" width="19" height="20"/>
<rect x="190" y="240" fill="#FFFF00" stroke="#FFFFFF" stroke-width="2" stroke-miterlimit="10" width="19" height="20"/>
<rect x="190" y="160" fill="#FFFF00" stroke="#FFFFFF" stroke-width="2" stroke-miterlimit="10" width="19" height="20"/>
</svg>
